<mxfile host="app.diagrams.net" agent="Mozilla/5.0 (Windows NT 10.0; Win64; x64) AppleWebKit/537.36 (KHTML, like Gecko) Chrome/127.0.0.0 Safari/537.36" version="24.7.7">
  <diagram name="PÃ¡gina-1" id="W-9YjPu_S8qOvLhw0v7I">
    <mxGraphModel dx="1380" dy="2298" grid="1" gridSize="10" guides="1" tooltips="1" connect="1" arrows="1" fold="1" page="1" pageScale="1" pageWidth="827" pageHeight="1169" math="0" shadow="0">
      <root>
        <mxCell id="0" />
        <mxCell id="1" parent="0" />
        <mxCell id="rMHsGs16JSKvdg_uWnjd-14" value="" style="edgeStyle=orthogonalEdgeStyle;rounded=0;orthogonalLoop=1;jettySize=auto;html=1;dashed=1;" edge="1" parent="1" source="rMHsGs16JSKvdg_uWnjd-2" target="rMHsGs16JSKvdg_uWnjd-12">
          <mxGeometry relative="1" as="geometry" />
        </mxCell>
        <mxCell id="rMHsGs16JSKvdg_uWnjd-2" value="MainBST" style="swimlane;fontStyle=0;childLayout=stackLayout;horizontal=1;startSize=30;horizontalStack=0;resizeParent=1;resizeParentMax=0;resizeLast=0;collapsible=1;marginBottom=0;whiteSpace=wrap;html=1;" vertex="1" parent="1">
          <mxGeometry x="430" y="-230" width="240" height="60" as="geometry">
            <mxRectangle x="260" y="290" width="90" height="30" as="alternateBounds" />
          </mxGeometry>
        </mxCell>
        <mxCell id="rMHsGs16JSKvdg_uWnjd-3" value="- main(String[] args)" style="text;strokeColor=none;fillColor=none;align=left;verticalAlign=middle;spacingLeft=4;spacingRight=4;overflow=hidden;points=[[0,0.5],[1,0.5]];portConstraint=eastwest;rotatable=0;whiteSpace=wrap;html=1;" vertex="1" parent="rMHsGs16JSKvdg_uWnjd-2">
          <mxGeometry y="30" width="240" height="30" as="geometry" />
        </mxCell>
        <mxCell id="rMHsGs16JSKvdg_uWnjd-12" value="BinarySearchTree&amp;lt;T&amp;gt;" style="swimlane;fontStyle=0;childLayout=stackLayout;horizontal=1;startSize=40;horizontalStack=0;resizeParent=1;resizeParentMax=0;resizeLast=0;collapsible=1;marginBottom=0;whiteSpace=wrap;html=1;" vertex="1" parent="1">
          <mxGeometry x="410" y="-110" width="280" height="500" as="geometry" />
        </mxCell>
        <mxCell id="rMHsGs16JSKvdg_uWnjd-13" value="- Node&amp;lt;T&amp;gt; root&lt;div&gt;&lt;hr&gt;&lt;div&gt;&lt;div&gt;+ BinarySearchTree()&amp;nbsp; &amp;nbsp; &amp;nbsp; &amp;nbsp; &amp;nbsp; &amp;nbsp; &amp;nbsp; &amp;nbsp; &amp;nbsp; &amp;nbsp;&lt;/div&gt;&lt;div&gt;+ BinarySearchTree(value: T)&amp;nbsp; &amp;nbsp; &amp;nbsp; &amp;nbsp; &amp;nbsp; &amp;nbsp;&lt;/div&gt;&lt;div&gt;+ getRoot(): T&amp;nbsp; &amp;nbsp; &amp;nbsp; &amp;nbsp; &amp;nbsp; &amp;nbsp; &amp;nbsp; &amp;nbsp; &amp;nbsp; &amp;nbsp; &amp;nbsp; &amp;nbsp; &amp;nbsp;&lt;/div&gt;&lt;div&gt;+ isEmpty(): boolean&amp;nbsp; &amp;nbsp; &amp;nbsp; &amp;nbsp; &amp;nbsp; &amp;nbsp; &amp;nbsp; &amp;nbsp; &amp;nbsp; &amp;nbsp;&lt;/div&gt;&lt;div&gt;+ search(value: T): T&amp;nbsp; &amp;nbsp; &amp;nbsp; &amp;nbsp; &amp;nbsp; &amp;nbsp; &amp;nbsp; &amp;nbsp; &amp;nbsp;&amp;nbsp;&lt;/div&gt;&lt;div&gt;- search(root: Node&amp;lt;T&amp;gt;, key: T): Node&amp;lt;T&amp;gt;&lt;/div&gt;&lt;div&gt;+ contains(key: T): boolean&amp;nbsp; &amp;nbsp; &amp;nbsp; &amp;nbsp; &amp;nbsp; &amp;nbsp;&amp;nbsp;&lt;/div&gt;&lt;div&gt;- contains(root: Node&amp;lt;T&amp;gt;, key: T): boolean&lt;/div&gt;&lt;div&gt;+ add(value: T): void&amp;nbsp; &amp;nbsp; &amp;nbsp; &amp;nbsp; &amp;nbsp; &amp;nbsp; &amp;nbsp; &amp;nbsp; &amp;nbsp;&amp;nbsp;&lt;/div&gt;&lt;div&gt;- addRecursive(root: Node&amp;lt;T&amp;gt;, value: T): Node&amp;lt;T&amp;gt;&lt;/div&gt;&lt;div&gt;+ delete(key: T): T&amp;nbsp; &amp;nbsp; &amp;nbsp; &amp;nbsp; &amp;nbsp; &amp;nbsp; &amp;nbsp; &amp;nbsp; &amp;nbsp; &amp;nbsp;&amp;nbsp;&lt;/div&gt;&lt;div&gt;- delete(root: Node&amp;lt;T&amp;gt;, data: T): Node&amp;lt;T&amp;gt;&lt;/div&gt;&lt;div&gt;- findMax(root: Node&amp;lt;T&amp;gt;): T&amp;nbsp; &amp;nbsp; &amp;nbsp; &amp;nbsp; &amp;nbsp; &amp;nbsp;&amp;nbsp;&lt;/div&gt;&lt;div&gt;+ preorder(): void&amp;nbsp; &amp;nbsp; &amp;nbsp; &amp;nbsp; &amp;nbsp; &amp;nbsp; &amp;nbsp; &amp;nbsp; &amp;nbsp; &amp;nbsp; &amp;nbsp;&lt;/div&gt;&lt;div&gt;- preorder(root: Node&amp;lt;T&amp;gt;): void&amp;nbsp; &amp;nbsp; &amp;nbsp; &amp;nbsp;&amp;nbsp;&lt;/div&gt;&lt;div&gt;+ inorder(): void&amp;nbsp; &amp;nbsp; &amp;nbsp; &amp;nbsp; &amp;nbsp; &amp;nbsp; &amp;nbsp; &amp;nbsp; &amp;nbsp; &amp;nbsp; &amp;nbsp;&amp;nbsp;&lt;/div&gt;&lt;div&gt;- inorder(root: Node&amp;lt;T&amp;gt;): void&amp;nbsp; &amp;nbsp; &amp;nbsp; &amp;nbsp; &amp;nbsp;&lt;/div&gt;&lt;div&gt;+ postorder(): void&amp;nbsp; &amp;nbsp; &amp;nbsp; &amp;nbsp; &amp;nbsp; &amp;nbsp; &amp;nbsp; &amp;nbsp; &amp;nbsp; &amp;nbsp;&amp;nbsp;&lt;/div&gt;&lt;div&gt;- postorder(root: Node&amp;lt;T&amp;gt;): void&amp;nbsp; &amp;nbsp; &amp;nbsp; &amp;nbsp;&lt;/div&gt;&lt;div&gt;+ size(): int&amp;nbsp; &amp;nbsp; &amp;nbsp; &amp;nbsp; &amp;nbsp; &amp;nbsp; &amp;nbsp; &amp;nbsp; &amp;nbsp; &amp;nbsp; &amp;nbsp; &amp;nbsp; &amp;nbsp;&amp;nbsp;&lt;/div&gt;&lt;div&gt;- size(root: Node&amp;lt;T&amp;gt;): int&amp;nbsp; &amp;nbsp; &amp;nbsp; &amp;nbsp; &amp;nbsp; &amp;nbsp; &amp;nbsp;&lt;/div&gt;&lt;div&gt;+ getPreOrderIterator(): TreeIterator&amp;lt;T&amp;gt;&lt;/div&gt;&lt;div&gt;+ getInOrderIterator(): TreeIterator&amp;lt;T&amp;gt;&lt;/div&gt;&lt;div&gt;+ getPostOrderIterator(): TreeIterator&amp;lt;T&amp;gt;&lt;/div&gt;&lt;div&gt;+ getLevelOrderIterator(): TreeIterator&amp;lt;T&amp;gt;&lt;/div&gt;&lt;div&gt;+ clone(): BinarySearchTree&amp;lt;T&amp;gt;&amp;nbsp; &amp;nbsp; &amp;nbsp; &amp;nbsp; &amp;nbsp;&lt;/div&gt;&lt;div&gt;- cloneNode(node: Node&amp;lt;T&amp;gt;): Node&amp;lt;T&amp;gt;&amp;nbsp; &amp;nbsp;&amp;nbsp;&lt;/div&gt;&lt;div&gt;+ getIterator(type: TraversalType): TreeIterator&amp;lt;T&amp;gt;&lt;/div&gt;&lt;/div&gt;&lt;/div&gt;&lt;div&gt;&lt;br&gt;&lt;/div&gt;" style="text;strokeColor=none;fillColor=none;align=left;verticalAlign=middle;spacingLeft=4;spacingRight=4;overflow=hidden;points=[[0,0.5],[1,0.5]];portConstraint=eastwest;rotatable=0;whiteSpace=wrap;html=1;" vertex="1" parent="rMHsGs16JSKvdg_uWnjd-12">
          <mxGeometry y="40" width="280" height="460" as="geometry" />
        </mxCell>
        <mxCell id="rMHsGs16JSKvdg_uWnjd-23" value="Node&amp;lt;T&amp;gt;" style="swimlane;fontStyle=0;childLayout=stackLayout;horizontal=1;startSize=40;horizontalStack=0;resizeParent=1;resizeParentMax=0;resizeLast=0;collapsible=1;marginBottom=0;whiteSpace=wrap;html=1;" vertex="1" parent="1">
          <mxGeometry x="430" y="500" width="240" height="160" as="geometry" />
        </mxCell>
        <mxCell id="rMHsGs16JSKvdg_uWnjd-24" value="- value: T&amp;nbsp;&lt;div&gt;- left: Node&amp;lt;T&amp;gt;&amp;nbsp;&lt;/div&gt;&lt;div&gt;- right: Node&amp;lt;T&amp;gt;&amp;nbsp; &amp;nbsp; &amp;nbsp; &amp;nbsp; &amp;nbsp; &amp;nbsp; &amp;nbsp; &amp;nbsp; &amp;nbsp; &amp;nbsp; &amp;nbsp; &amp;nbsp; &amp;nbsp; &amp;nbsp; &amp;nbsp; &amp;nbsp; &amp;nbsp; &amp;nbsp;&amp;nbsp;&lt;/div&gt;&lt;hr&gt;&lt;div&gt;+ Node(value: T)&lt;/div&gt;&lt;div&gt;+ toString(): String&lt;/div&gt;&lt;div&gt;+ compareTo(otherNode: Node&amp;lt;T&amp;gt;): int&lt;/div&gt;" style="text;strokeColor=none;fillColor=none;align=left;verticalAlign=middle;spacingLeft=4;spacingRight=4;overflow=hidden;points=[[0,0.5],[1,0.5]];portConstraint=eastwest;rotatable=0;whiteSpace=wrap;html=1;" vertex="1" parent="rMHsGs16JSKvdg_uWnjd-23">
          <mxGeometry y="40" width="240" height="120" as="geometry" />
        </mxCell>
        <mxCell id="rMHsGs16JSKvdg_uWnjd-26" value="&lt;i&gt;TreeIterator&lt;/i&gt;&amp;lt;T&amp;gt; (Interface)" style="swimlane;fontStyle=0;childLayout=stackLayout;horizontal=1;startSize=40;horizontalStack=0;resizeParent=1;resizeParentMax=0;resizeLast=0;collapsible=1;marginBottom=0;whiteSpace=wrap;html=1;" vertex="1" parent="1">
          <mxGeometry x="420" y="1070" width="240" height="160" as="geometry" />
        </mxCell>
        <mxCell id="rMHsGs16JSKvdg_uWnjd-27" value="+ hasNext(): boolean&lt;div&gt;+ next(): T&lt;/div&gt;" style="text;strokeColor=none;fillColor=none;align=left;verticalAlign=middle;spacingLeft=4;spacingRight=4;overflow=hidden;points=[[0,0.5],[1,0.5]];portConstraint=eastwest;rotatable=0;whiteSpace=wrap;html=1;" vertex="1" parent="rMHsGs16JSKvdg_uWnjd-26">
          <mxGeometry y="40" width="240" height="120" as="geometry" />
        </mxCell>
        <mxCell id="rMHsGs16JSKvdg_uWnjd-29" value="PreOrderIterator&amp;lt;T&amp;gt;" style="swimlane;fontStyle=0;childLayout=stackLayout;horizontal=1;startSize=40;horizontalStack=0;resizeParent=1;resizeParentMax=0;resizeLast=0;collapsible=1;marginBottom=0;whiteSpace=wrap;html=1;" vertex="1" parent="1">
          <mxGeometry y="800" width="240" height="160" as="geometry" />
        </mxCell>
        <mxCell id="rMHsGs16JSKvdg_uWnjd-30" value="&lt;div&gt;- stack: Stack&amp;lt;Node&amp;lt;T&amp;gt;&amp;gt;&lt;/div&gt;&lt;div&gt;&lt;br&gt;&lt;/div&gt;&lt;hr&gt;+ PreOrderIterator(root: Node&amp;lt;T&amp;gt;)&lt;div&gt;+ hasNext(): boolean&lt;div&gt;+ next(): T&lt;/div&gt;&lt;/div&gt;" style="text;strokeColor=none;fillColor=none;align=left;verticalAlign=middle;spacingLeft=4;spacingRight=4;overflow=hidden;points=[[0,0.5],[1,0.5]];portConstraint=eastwest;rotatable=0;whiteSpace=wrap;html=1;" vertex="1" parent="rMHsGs16JSKvdg_uWnjd-29">
          <mxGeometry y="40" width="240" height="120" as="geometry" />
        </mxCell>
        <mxCell id="rMHsGs16JSKvdg_uWnjd-40" value="InOrderIterator&amp;lt;T&amp;gt;" style="swimlane;fontStyle=0;childLayout=stackLayout;horizontal=1;startSize=40;horizontalStack=0;resizeParent=1;resizeParentMax=0;resizeLast=0;collapsible=1;marginBottom=0;whiteSpace=wrap;html=1;" vertex="1" parent="1">
          <mxGeometry x="260" y="800" width="240" height="160" as="geometry" />
        </mxCell>
        <mxCell id="rMHsGs16JSKvdg_uWnjd-41" value="&lt;div&gt;- stack: Stack&amp;lt;Node&amp;lt;T&amp;gt;&amp;gt;&lt;/div&gt;&lt;div&gt;- currentNode: Node&amp;lt;T&amp;gt;&lt;/div&gt;&lt;hr&gt;+ InOrderIterator(root: Node&amp;lt;T&amp;gt;)&lt;div&gt;+ hasNext(): boolean&lt;div&gt;+ next(): T&lt;/div&gt;&lt;/div&gt;" style="text;strokeColor=none;fillColor=none;align=left;verticalAlign=middle;spacingLeft=4;spacingRight=4;overflow=hidden;points=[[0,0.5],[1,0.5]];portConstraint=eastwest;rotatable=0;whiteSpace=wrap;html=1;" vertex="1" parent="rMHsGs16JSKvdg_uWnjd-40">
          <mxGeometry y="40" width="240" height="120" as="geometry" />
        </mxCell>
        <mxCell id="rMHsGs16JSKvdg_uWnjd-46" value="PostOrderIterator&amp;lt;T&amp;gt;" style="swimlane;fontStyle=0;childLayout=stackLayout;horizontal=1;startSize=40;horizontalStack=0;resizeParent=1;resizeParentMax=0;resizeLast=0;collapsible=1;marginBottom=0;whiteSpace=wrap;html=1;" vertex="1" parent="1">
          <mxGeometry x="524" y="800" width="240" height="160" as="geometry" />
        </mxCell>
        <mxCell id="rMHsGs16JSKvdg_uWnjd-47" value="&lt;div&gt;- stack: Stack&amp;lt;Node&amp;lt;T&amp;gt;&amp;gt;&lt;/div&gt;&lt;div&gt;- previousNode: Node&amp;lt;T&amp;gt;&lt;/div&gt;&lt;hr&gt;+ PostOrderIterator(root: Node&amp;lt;T&amp;gt;)&lt;div&gt;+ hasNext(): boolean&lt;div&gt;+ next(): T&lt;/div&gt;&lt;/div&gt;" style="text;strokeColor=none;fillColor=none;align=left;verticalAlign=middle;spacingLeft=4;spacingRight=4;overflow=hidden;points=[[0,0.5],[1,0.5]];portConstraint=eastwest;rotatable=0;whiteSpace=wrap;html=1;" vertex="1" parent="rMHsGs16JSKvdg_uWnjd-46">
          <mxGeometry y="40" width="240" height="120" as="geometry" />
        </mxCell>
        <mxCell id="rMHsGs16JSKvdg_uWnjd-51" value="LevelOrderIterator&amp;lt;T&amp;gt;" style="swimlane;fontStyle=0;childLayout=stackLayout;horizontal=1;startSize=40;horizontalStack=0;resizeParent=1;resizeParentMax=0;resizeLast=0;collapsible=1;marginBottom=0;whiteSpace=wrap;html=1;" vertex="1" parent="1">
          <mxGeometry x="800" y="800" width="240" height="160" as="geometry" />
        </mxCell>
        <mxCell id="rMHsGs16JSKvdg_uWnjd-52" value="&lt;div&gt;- stack: Stack&amp;lt;Node&amp;lt;T&amp;gt;&amp;gt;&lt;/div&gt;&lt;div&gt;- previousNode: Node&amp;lt;T&amp;gt;&lt;/div&gt;&lt;hr&gt;+ LevelOrderIterator(root: Node&amp;lt;T&amp;gt;)&lt;div&gt;+ hasNext(): boolean&lt;div&gt;+ next(): T&lt;/div&gt;&lt;/div&gt;" style="text;strokeColor=none;fillColor=none;align=left;verticalAlign=middle;spacingLeft=4;spacingRight=4;overflow=hidden;points=[[0,0.5],[1,0.5]];portConstraint=eastwest;rotatable=0;whiteSpace=wrap;html=1;" vertex="1" parent="rMHsGs16JSKvdg_uWnjd-51">
          <mxGeometry y="40" width="240" height="120" as="geometry" />
        </mxCell>
        <mxCell id="rMHsGs16JSKvdg_uWnjd-57" value="TraversalType" style="swimlane;fontStyle=0;childLayout=stackLayout;horizontal=1;startSize=40;horizontalStack=0;resizeParent=1;resizeParentMax=0;resizeLast=0;collapsible=1;marginBottom=0;whiteSpace=wrap;html=1;" vertex="1" parent="1">
          <mxGeometry x="1100" y="900" width="240" height="160" as="geometry" />
        </mxCell>
        <mxCell id="rMHsGs16JSKvdg_uWnjd-58" value="+ PRE_ORDER&lt;div&gt;+ IN_ORDER&lt;/div&gt;&lt;div&gt;+ POST_ORDER&lt;/div&gt;&lt;div&gt;+ LEVEL_ORDER&lt;/div&gt;" style="text;strokeColor=none;fillColor=none;align=left;verticalAlign=middle;spacingLeft=4;spacingRight=4;overflow=hidden;points=[[0,0.5],[1,0.5]];portConstraint=eastwest;rotatable=0;whiteSpace=wrap;html=1;" vertex="1" parent="rMHsGs16JSKvdg_uWnjd-57">
          <mxGeometry y="40" width="240" height="120" as="geometry" />
        </mxCell>
        <mxCell id="rMHsGs16JSKvdg_uWnjd-71" value="" style="endArrow=diamondThin;endFill=1;endSize=24;html=1;rounded=0;exitX=0.5;exitY=0;exitDx=0;exitDy=0;entryX=0.5;entryY=1;entryDx=0;entryDy=0;entryPerimeter=0;" edge="1" parent="1" source="rMHsGs16JSKvdg_uWnjd-23" target="rMHsGs16JSKvdg_uWnjd-13">
          <mxGeometry width="160" relative="1" as="geometry">
            <mxPoint x="500" y="500" as="sourcePoint" />
            <mxPoint x="550" y="400" as="targetPoint" />
            <Array as="points">
              <mxPoint x="550" y="410" />
            </Array>
          </mxGeometry>
        </mxCell>
        <mxCell id="rMHsGs16JSKvdg_uWnjd-72" value="" style="endArrow=block;dashed=1;endFill=0;endSize=12;html=1;rounded=0;exitX=0.529;exitY=1.025;exitDx=0;exitDy=0;exitPerimeter=0;entryX=0;entryY=0.426;entryDx=0;entryDy=0;entryPerimeter=0;" edge="1" parent="1" source="rMHsGs16JSKvdg_uWnjd-30" target="rMHsGs16JSKvdg_uWnjd-27">
          <mxGeometry width="160" relative="1" as="geometry">
            <mxPoint x="150" y="620" as="sourcePoint" />
            <mxPoint x="310" y="620" as="targetPoint" />
            <Array as="points">
              <mxPoint x="130" y="1160" />
            </Array>
          </mxGeometry>
        </mxCell>
        <mxCell id="rMHsGs16JSKvdg_uWnjd-77" value="" style="endArrow=block;dashed=1;endFill=0;endSize=12;html=1;rounded=0;entryX=0.25;entryY=0;entryDx=0;entryDy=0;exitX=0.482;exitY=0.983;exitDx=0;exitDy=0;exitPerimeter=0;" edge="1" parent="1" source="rMHsGs16JSKvdg_uWnjd-41" target="rMHsGs16JSKvdg_uWnjd-26">
          <mxGeometry width="160" relative="1" as="geometry">
            <mxPoint x="320" y="1010" as="sourcePoint" />
            <mxPoint x="480" y="1010" as="targetPoint" />
            <Array as="points">
              <mxPoint x="410" y="1000" />
            </Array>
          </mxGeometry>
        </mxCell>
        <mxCell id="rMHsGs16JSKvdg_uWnjd-78" value="" style="endArrow=block;dashed=1;endFill=0;endSize=12;html=1;rounded=0;exitX=0.502;exitY=0.983;exitDx=0;exitDy=0;exitPerimeter=0;entryX=0.644;entryY=-0.013;entryDx=0;entryDy=0;entryPerimeter=0;" edge="1" parent="1" source="rMHsGs16JSKvdg_uWnjd-47" target="rMHsGs16JSKvdg_uWnjd-26">
          <mxGeometry width="160" relative="1" as="geometry">
            <mxPoint x="490" y="1010" as="sourcePoint" />
            <mxPoint x="650" y="1010" as="targetPoint" />
          </mxGeometry>
        </mxCell>
        <mxCell id="rMHsGs16JSKvdg_uWnjd-79" value="" style="endArrow=block;dashed=1;endFill=0;endSize=12;html=1;rounded=0;exitX=0.451;exitY=1.004;exitDx=0;exitDy=0;exitPerimeter=0;entryX=1;entryY=0.5;entryDx=0;entryDy=0;" edge="1" parent="1" source="rMHsGs16JSKvdg_uWnjd-52" target="rMHsGs16JSKvdg_uWnjd-27">
          <mxGeometry width="160" relative="1" as="geometry">
            <mxPoint x="830" y="1040" as="sourcePoint" />
            <mxPoint x="990" y="1040" as="targetPoint" />
            <Array as="points">
              <mxPoint x="910" y="1170" />
            </Array>
          </mxGeometry>
        </mxCell>
        <mxCell id="rMHsGs16JSKvdg_uWnjd-84" value="" style="endArrow=none;html=1;edgeStyle=orthogonalEdgeStyle;rounded=0;exitX=0.5;exitY=0;exitDx=0;exitDy=0;entryX=-0.006;entryY=0.325;entryDx=0;entryDy=0;entryPerimeter=0;" edge="1" parent="1" source="rMHsGs16JSKvdg_uWnjd-29" target="rMHsGs16JSKvdg_uWnjd-24">
          <mxGeometry relative="1" as="geometry">
            <mxPoint x="160" y="620" as="sourcePoint" />
            <mxPoint x="320" y="620" as="targetPoint" />
          </mxGeometry>
        </mxCell>
        <mxCell id="rMHsGs16JSKvdg_uWnjd-87" value="" style="endArrow=none;html=1;edgeStyle=orthogonalEdgeStyle;rounded=0;exitX=0.417;exitY=0;exitDx=0;exitDy=0;entryX=0;entryY=0.5;entryDx=0;entryDy=0;exitPerimeter=0;" edge="1" parent="1" source="rMHsGs16JSKvdg_uWnjd-40" target="rMHsGs16JSKvdg_uWnjd-24">
          <mxGeometry relative="1" as="geometry">
            <mxPoint x="130" y="810" as="sourcePoint" />
            <mxPoint x="439" y="589" as="targetPoint" />
          </mxGeometry>
        </mxCell>
        <mxCell id="rMHsGs16JSKvdg_uWnjd-90" value="" style="endArrow=none;html=1;edgeStyle=orthogonalEdgeStyle;rounded=0;exitX=0.905;exitY=0.007;exitDx=0;exitDy=0;exitPerimeter=0;entryX=1;entryY=0.5;entryDx=0;entryDy=0;" edge="1" parent="1" source="rMHsGs16JSKvdg_uWnjd-46" target="rMHsGs16JSKvdg_uWnjd-24">
          <mxGeometry relative="1" as="geometry">
            <mxPoint x="500" y="870" as="sourcePoint" />
            <mxPoint x="644" y="661" as="targetPoint" />
          </mxGeometry>
        </mxCell>
        <mxCell id="rMHsGs16JSKvdg_uWnjd-91" value="" style="endArrow=none;html=1;edgeStyle=orthogonalEdgeStyle;rounded=0;exitX=0.5;exitY=0;exitDx=0;exitDy=0;entryX=1.007;entryY=0.343;entryDx=0;entryDy=0;entryPerimeter=0;" edge="1" parent="1" source="rMHsGs16JSKvdg_uWnjd-51" target="rMHsGs16JSKvdg_uWnjd-24">
          <mxGeometry relative="1" as="geometry">
            <mxPoint x="880" y="757" as="sourcePoint" />
            <mxPoint x="913" y="560" as="targetPoint" />
          </mxGeometry>
        </mxCell>
      </root>
    </mxGraphModel>
  </diagram>
</mxfile>
